<svg aria-hidden="true" style="position: absolute; width: 0; height: 0; overflow: hidden;" version="1.1" xmlns="http://www.w3.org/2000/svg" xmlns:xlink="http://www.w3.org/1999/xlink">
<defs>
<symbol id="icon-facebook" viewBox="0 0 16 28">
<path d="M14.984 0.187v4.125h-2.453c-1.922 0-2.281 0.922-2.281 2.25v2.953h4.578l-0.609 4.625h-3.969v11.859h-4.781v-11.859h-3.984v-4.625h3.984v-3.406c0-3.953 2.422-6.109 5.953-6.109 1.687 0 3.141 0.125 3.563 0.187z"></path>
</symbol>
<symbol id="icon-play-circle" viewBox="0 0 24 28">
<path d="M12 2c6.625 0 12 5.375 12 12s-5.375 12-12 12-12-5.375-12-12 5.375-12 12-12zM18 14.859c0.313-0.172 0.5-0.5 0.5-0.859s-0.187-0.688-0.5-0.859l-8.5-5c-0.297-0.187-0.688-0.187-1-0.016-0.313 0.187-0.5 0.516-0.5 0.875v10c0 0.359 0.187 0.688 0.5 0.875 0.156 0.078 0.328 0.125 0.5 0.125s0.344-0.047 0.5-0.141z"></path>
</symbol>
<symbol id="icon-instagram" viewBox="0 0 24 28">
<path d="M16 14c0-2.203-1.797-4-4-4s-4 1.797-4 4 1.797 4 4 4 4-1.797 4-4zM18.156 14c0 3.406-2.75 6.156-6.156 6.156s-6.156-2.75-6.156-6.156 2.75-6.156 6.156-6.156 6.156 2.75 6.156 6.156zM19.844 7.594c0 0.797-0.641 1.437-1.437 1.437s-1.437-0.641-1.437-1.437 0.641-1.437 1.437-1.437 1.437 0.641 1.437 1.437zM12 4.156c-1.75 0-5.5-0.141-7.078 0.484-0.547 0.219-0.953 0.484-1.375 0.906s-0.688 0.828-0.906 1.375c-0.625 1.578-0.484 5.328-0.484 7.078s-0.141 5.5 0.484 7.078c0.219 0.547 0.484 0.953 0.906 1.375s0.828 0.688 1.375 0.906c1.578 0.625 5.328 0.484 7.078 0.484s5.5 0.141 7.078-0.484c0.547-0.219 0.953-0.484 1.375-0.906s0.688-0.828 0.906-1.375c0.625-1.578 0.484-5.328 0.484-7.078s0.141-5.5-0.484-7.078c-0.219-0.547-0.484-0.953-0.906-1.375s-0.828-0.688-1.375-0.906c-1.578-0.625-5.328-0.484-7.078-0.484zM24 14c0 1.656 0.016 3.297-0.078 4.953-0.094 1.922-0.531 3.625-1.937 5.031s-3.109 1.844-5.031 1.937c-1.656 0.094-3.297 0.078-4.953 0.078s-3.297 0.016-4.953-0.078c-1.922-0.094-3.625-0.531-5.031-1.937s-1.844-3.109-1.937-5.031c-0.094-1.656-0.078-3.297-0.078-4.953s-0.016-3.297 0.078-4.953c0.094-1.922 0.531-3.625 1.937-5.031s3.109-1.844 5.031-1.937c1.656-0.094 3.297-0.078 4.953-0.078s3.297-0.016 4.953 0.078c1.922 0.094 3.625 0.531 5.031 1.937s1.844 3.109 1.937 5.031c0.094 1.656 0.078 3.297 0.078 4.953z"></path>
</symbol>
<symbol id="icon-arrow-left" viewBox="0 0 24 24">
<path d="M12.707 18.293l-5.293-5.293h11.586c0.552 0 1-0.448 1-1s-0.448-1-1-1h-11.586l5.293-5.293c0.391-0.391 0.391-1.024 0-1.414s-1.024-0.391-1.414 0l-7 7c-0.096 0.096-0.168 0.206-0.217 0.324-0.051 0.122-0.076 0.253-0.076 0.383 0 0.256 0.098 0.512 0.293 0.707l7 7c0.391 0.391 1.024 0.391 1.414 0s0.391-1.024 0-1.414z"></path>
</symbol>
<symbol id="icon-arrow-right" viewBox="0 0 24 24">
<path d="M11.293 5.707l5.293 5.293h-11.586c-0.552 0-1 0.448-1 1s0.448 1 1 1h11.586l-5.293 5.293c-0.391 0.391-0.391 1.024 0 1.414s1.024 0.391 1.414 0l7-7c0.092-0.092 0.166-0.202 0.217-0.324 0.101-0.245 0.101-0.521 0-0.766-0.049-0.118-0.121-0.228-0.217-0.324l-7-7c-0.391-0.391-1.024-0.391-1.414 0s-0.391 1.024 0 1.414z"></path>
</symbol>
<symbol id="icon-chevron-left" viewBox="0 0 24 24">
<path d="M15.707 17.293l-5.293-5.293 5.293-5.293c0.391-0.391 0.391-1.024 0-1.414s-1.024-0.391-1.414 0l-6 6c-0.391 0.391-0.391 1.024 0 1.414l6 6c0.391 0.391 1.024 0.391 1.414 0s0.391-1.024 0-1.414z"></path>
</symbol>
<symbol id="icon-chevron-right" viewBox="0 0 24 24">
<path d="M9.707 18.707l6-6c0.391-0.391 0.391-1.024 0-1.414l-6-6c-0.391-0.391-1.024-0.391-1.414 0s-0.391 1.024 0 1.414l5.293 5.293-5.293 5.293c-0.391 0.391-0.391 1.024 0 1.414s1.024 0.391 1.414 0z"></path>
</symbol>
<symbol id="icon-plus" viewBox="0 0 24 24">
<path d="M5 13h6v6c0 0.552 0.448 1 1 1s1-0.448 1-1v-6h6c0.552 0 1-0.448 1-1s-0.448-1-1-1h-6v-6c0-0.552-0.448-1-1-1s-1 0.448-1 1v6h-6c-0.552 0-1 0.448-1 1s0.448 1 1 1z"></path>
</symbol>
<symbol id="icon-x" viewBox="0 0 24 24">
<path d="M5.293 6.707l5.293 5.293-5.293 5.293c-0.391 0.391-0.391 1.024 0 1.414s1.024 0.391 1.414 0l5.293-5.293 5.293 5.293c0.391 0.391 1.024 0.391 1.414 0s0.391-1.024 0-1.414l-5.293-5.293 5.293-5.293c0.391-0.391 0.391-1.024 0-1.414s-1.024-0.391-1.414 0l-5.293 5.293-5.293-5.293c-0.391-0.391-1.024-0.391-1.414 0s-0.391 1.024 0 1.414z"></path>
</symbol>
</defs>
</svg>
